<svg width="54" height="54" viewBox="0 0 54 54" fill="none" xmlns="http://www.w3.org/2000/svg">
<path d="M52 15.8889V38.1111C52 45.7817 45.7817 52 38.1111 52H15.8889C8.21828 52 2 45.7817 2 38.1111V15.8889C2 8.21828 8.21828 2 15.8889 2H38.1111C45.7817 2 52 8.21828 52 15.8889Z" fill="#44695C" stroke="black" stroke-width="3" stroke-linecap="round" stroke-linejoin="round"/>
<path d="M24.2222 52C24.2222 43.6667 24.2222 35.3334 24.2222 27C24.2222 20.9236 25.6111 15.8889 35.3333 15.8889" fill="#44695C"/>
<path d="M24.2222 52C24.2222 43.6667 24.2222 35.3334 24.2222 27C24.2222 20.9236 25.6111 15.8889 35.3333 15.8889" stroke="black" stroke-width="3" stroke-linecap="round" stroke-linejoin="round"/>
<path d="M18.6665 29.7778H24.2221H35.3332" fill="#44695C"/>
<path d="M18.6665 29.7778H24.2221H35.3332" stroke="black" stroke-width="3" stroke-linecap="round" stroke-linejoin="round"/>
</svg>
