<svg width="54" height="54" viewBox="0 0 54 54" fill="none" xmlns="http://www.w3.org/2000/svg">
<path d="M2 38.1111V15.8889C2 8.21828 8.21828 2 15.8889 2H38.1111C45.7817 2 52 8.21828 52 15.8889V38.1111C52 45.7817 45.7817 52 38.1111 52H15.8889C8.21828 52 2 45.7817 2 38.1111Z" fill="#44695C" stroke="black" stroke-width="3"/>
<path d="M42.2778 11.75L42.3056 11.7191Z" fill="#44695C"/>
<path d="M42.2778 11.75L42.3056 11.7191" stroke="black" stroke-width="3" stroke-linecap="round" stroke-linejoin="round"/>
<path d="M27 38.1111C33.1364 38.1111 38.1111 33.1364 38.1111 27C38.1111 20.8635 33.1364 15.8889 27 15.8889C20.8635 15.8889 15.8889 20.8635 15.8889 27C15.8889 33.1364 20.8635 38.1111 27 38.1111Z" fill="#44695C" stroke="black" stroke-width="3" stroke-linecap="round" stroke-linejoin="round"/>
</svg>
