<svg width="58" height="49" viewBox="0 0 58 49" fill="none" xmlns="http://www.w3.org/2000/svg">
<path d="M56.3938 3.57816L55 3.02378C56.3938 3.57816 56.3937 3.57832 56.3937 3.5785L56.3935 3.57899L56.3929 3.58041L56.3911 3.58494L56.3847 3.60077L56.3614 3.65863C56.3412 3.70852 56.3117 3.7807 56.2736 3.87264C56.1975 4.05647 56.0869 4.31966 55.9469 4.64211C55.6673 5.28601 55.2682 6.17117 54.7904 7.13509C53.9857 8.75841 52.8783 10.7726 51.678 12.1812C51.7394 12.6699 51.7711 13.1622 51.7727 13.6553L51.7727 13.6601C51.7727 27.776 44.9924 38.0512 35.3184 43.2003C25.6809 48.3299 13.3227 48.2928 2.27154 42.1533C1.66432 41.8159 1.36815 41.1058 1.55572 40.437C1.74329 39.7682 2.36552 39.3156 3.0596 39.3432C7.73014 39.529 12.3474 38.4525 16.4338 36.2503C12.2575 33.9647 9.37609 31.1574 7.4572 28.1276C5.18258 24.536 4.3174 20.7225 4.16064 17.2738C4.00418 13.8316 4.55125 10.7219 5.13017 8.48345C5.42052 7.36072 5.72136 6.44769 5.95193 5.80995C6.0673 5.49084 6.16533 5.23994 6.23603 5.06542C6.27139 4.97814 6.29994 4.9099 6.32044 4.8617L6.34499 4.80456L6.35245 4.78749L6.35493 4.78187L6.35585 4.77979C6.35622 4.77896 6.35655 4.77821 7.72727 5.38741L6.35655 4.77821C6.57602 4.2844 7.04414 3.94681 7.58198 3.89447C8.11982 3.84212 8.64424 4.08312 8.9548 4.52534C11.2007 7.72331 14.2026 10.3162 17.6931 12.0731L17.0188 13.413L17.6931 12.0732C20.7478 13.6107 24.0938 14.4662 27.5 14.588V13.7407C27.469 11.2681 28.1969 8.84534 29.586 6.79921L56.3938 3.57816ZM56.3938 3.57816C56.6309 2.9821 56.4627 2.30126 55.9753 1.88416C55.488 1.46709 54.7894 1.40604 54.2371 1.73225L56.3938 3.57816ZM47.9975 4.90415C49.0756 4.48168 50.3939 3.83375 51.5836 3.20588C52.3292 2.81235 52.9949 2.44263 53.4743 2.17123C53.7136 2.03568 53.9059 1.92504 54.0376 1.8487C54.1034 1.81053 54.1541 1.78096 54.1879 1.76117L54.2257 1.73896L54.2348 1.73363L54.2368 1.73246L54.237 1.73231L47.9975 4.90415ZM47.9975 4.90415C46.4758 3.43081 44.5889 2.3786 42.5225 1.86154L42.1968 3.16298L42.5224 1.86154C40.12 1.26043 37.591 1.41162 35.2773 2.29472C32.9638 3.17778 30.9769 4.75009 29.5861 6.79911L47.9975 4.90415Z" fill="#44695C" stroke="black" stroke-width="3" stroke-linecap="round" stroke-linejoin="round"/>
</svg>
