<svg width="40" height="40" viewBox="0 0 40 40" fill="none" xmlns="http://www.w3.org/2000/svg">
<path d="M11.6 0.5H28.4C34.5239 0.5 39.5 5.47614 39.5 11.6V28.4C39.5 31.3439 38.3305 34.1672 36.2489 36.2489C34.1672 38.3305 31.3439 39.5 28.4 39.5H11.6C5.47614 39.5 0.5 34.5239 0.5 28.4V11.6C0.5 8.6561 1.66946 5.83277 3.75111 3.75111C5.83277 1.66946 8.6561 0.5 11.6 0.5ZM11.2 3.5C9.15783 3.5 7.19931 4.31125 5.75528 5.75528C4.31125 7.19931 3.5 9.15783 3.5 11.2V28.8C3.5 33.0561 6.94386 36.5 11.2 36.5H28.8C30.8422 36.5 32.8007 35.6888 34.2447 34.2447C35.6888 32.8007 36.5 30.8422 36.5 28.8V11.2C36.5 6.94386 33.0561 3.5 28.8 3.5H11.2ZM30.5 7.5C31.0304 7.5 31.5391 7.71071 31.9142 8.08579C32.2893 8.46086 32.5 8.96957 32.5 9.5C32.5 10.0304 32.2893 10.5391 31.9142 10.9142C31.5391 11.2893 31.0304 11.5 30.5 11.5C29.9696 11.5 29.4609 11.2893 29.0858 10.9142C28.7107 10.5391 28.5 10.0304 28.5 9.5C28.5 8.96957 28.7107 8.46086 29.0858 8.08579C29.4609 7.71071 29.9696 7.5 30.5 7.5ZM20 10.5C22.5196 10.5 24.9359 11.5009 26.7175 13.2825C28.4991 15.0641 29.5 17.4804 29.5 20C29.5 22.5196 28.4991 24.9359 26.7175 26.7175C24.9359 28.4991 22.5196 29.5 20 29.5C17.4804 29.5 15.0641 28.4991 13.2825 26.7175C11.5009 24.9359 10.5 22.5196 10.5 20C10.5 17.4804 11.5009 15.0641 13.2825 13.2825C15.0641 11.5009 17.4804 10.5 20 10.5ZM20 13.5C18.2761 13.5 16.6228 14.1848 15.4038 15.4038C14.1848 16.6228 13.5 18.2761 13.5 20C13.5 21.7239 14.1848 23.3772 15.4038 24.5962C16.6228 25.8152 18.2761 26.5 20 26.5C21.7239 26.5 23.3772 25.8152 24.5962 24.5962C25.8152 23.3772 26.5 21.7239 26.5 20C26.5 18.2761 25.8152 16.6228 24.5962 15.4038C23.3772 14.1848 21.7239 13.5 20 13.5Z" fill="#44695C" stroke="black"/>
</svg>
