<svg width="38" height="38" viewBox="0 0 38 38" fill="none" xmlns="http://www.w3.org/2000/svg">
<path d="M34.5 35H35V34.5V3V2.5H34.5H3H2.5V3V34.5V35H3H20.025H20.525V34.5V22.9734V22.4734H20.025H15.6359V17.8156H20.0203H20.5203V17.3156V13.1437C20.5203 10.826 21.2258 9.09469 22.391 7.94289C23.5576 6.78957 25.2406 6.1625 27.3 6.1625C28.9478 6.1625 30.4027 6.26145 31.1687 6.33509V10.45H28.6734C27.4327 10.45 26.5529 10.7441 26.0086 11.391C25.4807 12.0185 25.3703 12.8647 25.3703 13.7062V17.3203V17.8203H25.8703H30.9078L30.3058 22.4781H25.8703H25.3703V22.9781V34.5V35H25.8703H34.5ZM1.5 0.5H36C36.5535 0.5 37 0.946455 37 1.5V36C37 36.5535 36.5535 37 36 37H1.5C0.946455 37 0.5 36.5535 0.5 36V1.5C0.5 0.946455 0.946455 0.5 1.5 0.5Z" fill="#44695C" stroke="black"/>
</svg>
